<?xml version="1.0" encoding="UTF-8"?>
<!DOCTYPE svg PUBLIC "-//W3C//DTD SVG 1.1//EN" "http://www.w3.org/Graphics/SVG/1.1/DTD/svg11.dtd">
<svg xmlns="http://www.w3.org/2000/svg" version="1.1" width="100px" height="100px" style="shape-rendering:geometricPrecision; text-rendering:geometricPrecision; image-rendering:optimizeQuality; fill-rule:evenodd; clip-rule:evenodd" xmlns:xlink="http://www.w3.org/1999/xlink">
<g><path style="opacity:0.921" fill="#000000" d="M 8.5,7.5 C 35.8354,7.33336 63.1687,7.50002 90.5,8C 92.3333,9.16667 93.8333,10.6667 95,12.5C 95.6667,31.8333 95.6667,51.1667 95,70.5C 93.8333,72.3333 92.3333,73.8333 90.5,75C 74.1667,75.3333 57.8333,75.6667 41.5,76C 36.3686,87.0668 27.7019,92.2334 15.5,91.5C 15.4457,88.033 16.9457,85.3663 20,83.5C 21.0793,80.9373 21.5793,78.2706 21.5,75.5C 17.1539,75.6657 12.8206,75.499 8.5,75C 6.66667,73.8333 5.16667,72.3333 4,70.5C 3.33333,51.1667 3.33333,31.8333 4,12.5C 5.36569,10.6383 6.86569,8.97167 8.5,7.5 Z M 13.5,11.5 C 38.5649,11.0284 63.5649,11.5284 88.5,13C 89.8932,14.1711 90.7265,15.6711 91,17.5C 91.9569,34.5666 91.6236,51.5666 90,68.5C 88.8289,69.8932 87.3289,70.7265 85.5,71C 69.5,71.3333 53.5,71.6667 37.5,72C 35.1348,77.7025 31.3015,82.2025 26,85.5C 26.6818,81.1612 26.5152,76.8279 25.5,72.5C 20.4562,71.831 15.4562,70.9977 10.5,70C 9.10679,68.8289 8.27346,67.3289 8,65.5C 7.33333,49.5 7.33333,33.5 8,17.5C 8.6831,14.3212 10.5164,12.3212 13.5,11.5 Z"/></g>
</svg>
