<?xml version="1.0" encoding="UTF-8"?>
<!DOCTYPE svg PUBLIC "-//W3C//DTD SVG 1.1//EN" "http://www.w3.org/Graphics/SVG/1.1/DTD/svg11.dtd">
<svg xmlns="http://www.w3.org/2000/svg" version="1.1" width="100px" height="100px" style="shape-rendering:geometricPrecision; text-rendering:geometricPrecision; image-rendering:optimizeQuality; fill-rule:evenodd; clip-rule:evenodd" xmlns:xlink="http://www.w3.org/1999/xlink">
<g><path style="opacity:0.993" fill="#e32f5c" d="M 83.5,17.5 C 64.3431,30.4703 45.0097,43.3037 25.5,56C 23.6547,57.128 21.6547,57.628 19.5,57.5C 16.8333,55.5 14.5,53.1667 12.5,50.5C 23.7562,42.1942 35.4228,34.3609 47.5,27C 48.3366,25.9887 48.67,24.8221 48.5,23.5C 54.0347,19.5647 60.0347,16.398 66.5,14C 72.7611,12.8194 78.4277,13.9861 83.5,17.5 Z"/></g>
<g><path style="opacity:0.993" fill="#ed416c" d="M 48.5,23.5 C 48.67,24.8221 48.3366,25.9887 47.5,27C 35.4228,34.3609 23.7562,42.1942 12.5,50.5C 3.24162,40.1443 3.24162,29.6443 12.5,19C 25.7211,10.8193 37.7211,12.3193 48.5,23.5 Z"/></g>
<g><path style="opacity:0.987" fill="#df2856" d="M 83.5,17.5 C 86.1894,18.1894 87.8561,19.856 88.5,22.5C 83.0091,27.4655 77.0091,31.9655 70.5,36C 57.9963,43.7509 45.6629,51.7509 33.5,60C 30.89,61.4814 28.2234,62.6481 25.5,63.5C 23.1667,61.8333 21.1667,59.8333 19.5,57.5C 21.6547,57.628 23.6547,57.128 25.5,56C 45.0097,43.3037 64.3431,30.4703 83.5,17.5 Z"/></g>
<g><path style="opacity:0.986" fill="#dc2250" d="M 88.5,22.5 C 90.873,24.5792 92.2064,27.2459 92.5,30.5C 72.2051,43.4744 52.2051,56.8077 32.5,70.5C 29.8333,68.5 27.5,66.1667 25.5,63.5C 28.2234,62.6481 30.89,61.4814 33.5,60C 45.6629,51.7509 57.9963,43.7509 70.5,36C 77.0091,31.9655 83.0091,27.4655 88.5,22.5 Z"/></g>
<g><path style="opacity:0.993" fill="#d71948" d="M 92.5,30.5 C 94.6457,37.5565 93.1457,43.8899 88,49.5C 76.5,61 65,72.5 53.5,84C 50.8333,86 48.1667,86 45.5,84C 40.9633,79.6312 36.6299,75.1312 32.5,70.5C 52.2051,56.8077 72.2051,43.4744 92.5,30.5 Z"/></g>
</svg>
