<?xml version="1.0" encoding="UTF-8"?>
<!DOCTYPE svg PUBLIC "-//W3C//DTD SVG 1.1//EN" "http://www.w3.org/Graphics/SVG/1.1/DTD/svg11.dtd">
<svg xmlns="http://www.w3.org/2000/svg" version="1.1" width="100px" height="100px" style="shape-rendering:geometricPrecision; text-rendering:geometricPrecision; image-rendering:optimizeQuality; fill-rule:evenodd; clip-rule:evenodd" xmlns:xlink="http://www.w3.org/1999/xlink">
<g><path style="opacity:0.771" fill="#000000" d="M 22.5,13.5 C 32.879,11.7394 41.879,14.4061 49.5,21.5C 60.6904,12.2478 72.6904,11.0811 85.5,18C 94.6795,26.2092 97.8462,36.3759 95,48.5C 91.8915,58.551 86.3915,67.051 78.5,74C 68.9721,81.0277 59.3054,87.861 49.5,94.5C 39.6946,87.861 30.0279,81.0277 20.5,74C 5.15769,61.3105 0.324358,45.4772 6,26.5C 9.96179,20.0192 15.4618,15.6859 22.5,13.5 Z M 23.5,18.5 C 35.0084,16.5903 43.6751,20.5903 49.5,30.5C 58.4353,17.5251 69.7686,15.0251 83.5,23C 90.0922,29.8855 92.2588,38.0522 90,47.5C 86.755,57.4807 80.9216,65.6474 72.5,72C 65.5,77 58.5,82 51.5,87C 50.1667,87.6667 48.8333,87.6667 47.5,87C 35.9927,79.8185 25.4927,71.3185 16,61.5C 8.59855,52.2101 6.59855,41.8767 10,30.5C 12.85,24.5144 17.35,20.5144 23.5,18.5 Z"/></g>
</svg>
