<?xml version="1.0" encoding="UTF-8"?>
<!DOCTYPE svg PUBLIC "-//W3C//DTD SVG 1.1//EN" "http://www.w3.org/Graphics/SVG/1.1/DTD/svg11.dtd">
<svg xmlns="http://www.w3.org/2000/svg" version="1.1" width="100px" height="100px" style="shape-rendering:geometricPrecision; text-rendering:geometricPrecision; image-rendering:optimizeQuality; fill-rule:evenodd; clip-rule:evenodd" xmlns:xlink="http://www.w3.org/1999/xlink">
<g><path style="opacity:0.771" fill="#000000" d="M 39.5,3.5 C 67.9223,0.452161 86.4223,12.4522 95,39.5C 98.5361,67.9428 86.7027,86.4428 59.5,95C 31.0572,98.5361 12.5572,86.7027 4,59.5C 0.672469,31.0314 12.5058,12.3647 39.5,3.5 Z M 40.5,8.5 C 65.6258,5.97201 82.1258,16.6387 90,40.5C 92.994,65.6944 82.494,82.1944 58.5,90C 33.3056,92.994 16.8056,82.494 9,58.5C 6.127,33.2191 16.627,16.5524 40.5,8.5 Z"/></g>
<g><path style="opacity:0.852" fill="#000000" d="M 45.5,21.5 C 55.4874,20.3319 58.154,24.1653 53.5,33C 43.4338,34.4671 40.7671,30.6338 45.5,21.5 Z"/></g>
<g><path style="opacity:1" fill="#000000" d="M 41.5,41.5 C 45.5,41.5 49.5,41.5 53.5,41.5C 53.5,51.5 53.5,61.5 53.5,71.5C 54.8333,71.5 56.1667,71.5 57.5,71.5C 57.5,72.8333 57.5,74.1667 57.5,75.5C 52.1667,75.5 46.8333,75.5 41.5,75.5C 41.5,74.1667 41.5,72.8333 41.5,71.5C 42.8333,71.5 44.1667,71.5 45.5,71.5C 45.5,62.8333 45.5,54.1667 45.5,45.5C 44.1667,45.5 42.8333,45.5 41.5,45.5C 41.5,44.1667 41.5,42.8333 41.5,41.5 Z"/></g>
</svg>
