<?xml version="1.0" encoding="UTF-8"?>
<!DOCTYPE svg PUBLIC "-//W3C//DTD SVG 1.1//EN" "http://www.w3.org/Graphics/SVG/1.1/DTD/svg11.dtd">
<svg xmlns="http://www.w3.org/2000/svg" version="1.1" width="100px" height="100px" style="shape-rendering:geometricPrecision; text-rendering:geometricPrecision; image-rendering:optimizeQuality; fill-rule:evenodd; clip-rule:evenodd" xmlns:xlink="http://www.w3.org/1999/xlink">
<g><path style="opacity:0.827" fill="#000000" d="M 5.5,15.5 C 34.8333,15.5 64.1667,15.5 93.5,15.5C 93.5,38.1667 93.5,60.8333 93.5,83.5C 64.1667,83.5 34.8333,83.5 5.5,83.5C 5.5,60.8333 5.5,38.1667 5.5,15.5 Z M 8.5,18.5 C 35.8333,18.5 63.1667,18.5 90.5,18.5C 90.5,39.1667 90.5,59.8333 90.5,80.5C 63.1667,80.5 35.8333,80.5 8.5,80.5C 8.5,59.8333 8.5,39.1667 8.5,18.5 Z"/></g>
<g><path style="opacity:0.475" fill="#000000" d="M 10.5,28.5 C 12.1042,29.287 12.7709,30.6203 12.5,32.5C 11.5,32.5 10.5,32.5 9.5,32.5C 9.43255,31.0413 9.76589,29.7079 10.5,28.5 Z"/></g>
<g><path style="opacity:0.48" fill="#000000" d="M 87.5,28.5 C 89.1042,29.287 89.7709,30.6203 89.5,32.5C 88.5,32.5 87.5,32.5 86.5,32.5C 86.4326,31.0413 86.7659,29.7079 87.5,28.5 Z"/></g>
<g><path style="opacity:0.397" fill="#000000" d="M 14.5,31.5 C 17.8606,32.2032 18.1939,33.5365 15.5,35.5C 13.3576,34.5629 13.0243,33.2296 14.5,31.5 Z"/></g>
<g><path style="opacity:0.396" fill="#000000" d="M 82.5,31.5 C 85.8606,32.2032 86.1939,33.5365 83.5,35.5C 81.3576,34.5629 81.0243,33.2296 82.5,31.5 Z"/></g>
<g><path style="opacity:0.399" fill="#000000" d="M 18.5,34.5 C 21.8606,35.2032 22.1939,36.5365 19.5,38.5C 17.3576,37.5629 17.0243,36.2296 18.5,34.5 Z"/></g>
<g><path style="opacity:0.397" fill="#000000" d="M 78.5,34.5 C 81.8606,35.2032 82.1939,36.5365 79.5,38.5C 77.3576,37.5629 77.0243,36.2296 78.5,34.5 Z"/></g>
<g><path style="opacity:0.477" fill="#000000" d="M 22.5,37.5 C 25.8606,38.2032 26.1939,39.5365 23.5,41.5C 22.5713,40.3112 22.238,38.9778 22.5,37.5 Z"/></g>
<g><path style="opacity:0.476" fill="#000000" d="M 74.5,37.5 C 75.5862,37.62 76.2528,38.2867 76.5,39.5C 75.6964,41.9573 74.6964,41.9573 73.5,39.5C 73.8627,38.8165 74.1961,38.1499 74.5,37.5 Z"/></g>
<g><path style="opacity:0.475" fill="#000000" d="M 26.5,40.5 C 27.5,40.5 28.5,40.5 29.5,40.5C 28.5,45.8333 27.5,45.8333 26.5,40.5 Z"/></g>
<g><path style="opacity:0.475" fill="#000000" d="M 69.5,40.5 C 70.5,40.5 71.5,40.5 72.5,40.5C 71.5,45.8333 70.5,45.8333 69.5,40.5 Z"/></g>
<g><path style="opacity:0.478" fill="#000000" d="M 30.5,43.5 C 31.5,43.5 32.5,43.5 33.5,43.5C 32.5,48.8333 31.5,48.8333 30.5,43.5 Z"/></g>
<g><path style="opacity:0.475" fill="#000000" d="M 65.5,43.5 C 66.5,43.5 67.5,43.5 68.5,43.5C 67.5,48.8333 66.5,48.8333 65.5,43.5 Z"/></g>
<g><path style="opacity:0.432" fill="#000000" d="M 34.5,46.5 C 36.3464,46.2222 37.6798,46.8888 38.5,48.5C 37.3112,49.4287 35.9778,49.762 34.5,49.5C 34.5,48.5 34.5,47.5 34.5,46.5 Z"/></g>
<g><path style="opacity:0.432" fill="#000000" d="M 61.5,46.5 C 62.5,46.5 63.5,46.5 64.5,46.5C 64.5,47.5 64.5,48.5 64.5,49.5C 61.4331,49.8795 60.4331,48.8795 61.5,46.5 Z"/></g>
<g><path style="opacity:0.532" fill="#000000" d="M 29.5,49.5 C 30.5,49.5 31.5,49.5 32.5,49.5C 32.5,50.5 32.5,51.5 32.5,52.5C 31.5,52.5 30.5,52.5 29.5,52.5C 29.5,51.5 29.5,50.5 29.5,49.5 Z"/></g>
<g><path style="opacity:0.433" fill="#000000" d="M 39.5,49.5 C 40.5,49.5 41.5,49.5 42.5,49.5C 42.5,50.5 42.5,51.5 42.5,52.5C 39.4331,52.8795 38.4331,51.8795 39.5,49.5 Z"/></g>
<g><path style="opacity:0.431" fill="#000000" d="M 56.5,49.5 C 58.3464,49.2222 59.6798,49.8888 60.5,51.5C 59.3112,52.4287 57.9778,52.762 56.5,52.5C 56.5,51.5 56.5,50.5 56.5,49.5 Z"/></g>
<g><path style="opacity:0.533" fill="#000000" d="M 66.5,49.5 C 67.5,49.5 68.5,49.5 69.5,49.5C 69.5,50.5 69.5,51.5 69.5,52.5C 68.5,52.5 67.5,52.5 66.5,52.5C 66.5,51.5 66.5,50.5 66.5,49.5 Z"/></g>
<g><path style="opacity:0.4" fill="#000000" d="M 25.5,52.5 C 26.5,52.5 27.5,52.5 28.5,52.5C 28.5,53.8333 28.5,55.1667 28.5,56.5C 27.5,56.5 26.5,56.5 25.5,56.5C 25.5,55.1667 25.5,53.8333 25.5,52.5 Z"/></g>
<g><path style="opacity:0.528" fill="#000000" d="M 43.5,52.5 C 44.5,52.5 45.5,52.5 46.5,52.5C 46.5,53.5 46.5,54.5 46.5,55.5C 45.5,55.5 44.5,55.5 43.5,55.5C 43.5,54.5 43.5,53.5 43.5,52.5 Z"/></g>
<g><path style="opacity:0.529" fill="#000000" d="M 52.5,52.5 C 53.5,52.5 54.5,52.5 55.5,52.5C 55.5,53.5 55.5,54.5 55.5,55.5C 54.5,55.5 53.5,55.5 52.5,55.5C 52.5,54.5 52.5,53.5 52.5,52.5 Z"/></g>
<g><path style="opacity:0.4" fill="#000000" d="M 70.5,52.5 C 71.5,52.5 72.5,52.5 73.5,52.5C 73.5,53.8333 73.5,55.1667 73.5,56.5C 72.5,56.5 71.5,56.5 70.5,56.5C 70.5,55.1667 70.5,53.8333 70.5,52.5 Z"/></g>
<g><path style="opacity:0.478" fill="#000000" d="M 47.5,54.5 C 48.9778,54.238 50.3112,54.5713 51.5,55.5C 49.5365,58.1939 48.2032,57.8606 47.5,54.5 Z"/></g>
<g><path style="opacity:0.532" fill="#000000" d="M 21.5,56.5 C 22.5,56.5 23.5,56.5 24.5,56.5C 24.5,57.5 24.5,58.5 24.5,59.5C 23.5,59.5 22.5,59.5 21.5,59.5C 21.5,58.5 21.5,57.5 21.5,56.5 Z"/></g>
<g><path style="opacity:0.533" fill="#000000" d="M 74.5,56.5 C 75.5,56.5 76.5,56.5 77.5,56.5C 77.5,57.5 77.5,58.5 77.5,59.5C 76.5,59.5 75.5,59.5 74.5,59.5C 74.5,58.5 74.5,57.5 74.5,56.5 Z"/></g>
<g><path style="opacity:0.399" fill="#000000" d="M 17.5,60.5 C 18.8333,60.5 20.1667,60.5 21.5,60.5C 21.5,61.5 21.5,62.5 21.5,63.5C 20.1667,63.5 18.8333,63.5 17.5,63.5C 17.5,62.5 17.5,61.5 17.5,60.5 Z"/></g>
<g><path style="opacity:0.399" fill="#000000" d="M 77.5,60.5 C 78.8333,60.5 80.1667,60.5 81.5,60.5C 81.5,61.5 81.5,62.5 81.5,63.5C 80.1667,63.5 78.8333,63.5 77.5,63.5C 77.5,62.5 77.5,61.5 77.5,60.5 Z"/></g>
<g><path style="opacity:0.532" fill="#000000" d="M 14.5,64.5 C 15.5,64.5 16.5,64.5 17.5,64.5C 17.5,65.5 17.5,66.5 17.5,67.5C 16.5,67.5 15.5,67.5 14.5,67.5C 14.5,66.5 14.5,65.5 14.5,64.5 Z"/></g>
<g><path style="opacity:0.533" fill="#000000" d="M 81.5,64.5 C 82.5,64.5 83.5,64.5 84.5,64.5C 84.5,65.5 84.5,66.5 84.5,67.5C 83.5,67.5 82.5,67.5 81.5,67.5C 81.5,66.5 81.5,65.5 81.5,64.5 Z"/></g>
<g><path style="opacity:0.4" fill="#000000" d="M 10.5,67.5 C 11.5,67.5 12.5,67.5 13.5,67.5C 13.5,68.8333 13.5,70.1667 13.5,71.5C 12.5,71.5 11.5,71.5 10.5,71.5C 10.5,70.1667 10.5,68.8333 10.5,67.5 Z"/></g>
<g><path style="opacity:0.4" fill="#000000" d="M 85.5,67.5 C 86.5,67.5 87.5,67.5 88.5,67.5C 88.5,68.8333 88.5,70.1667 88.5,71.5C 87.5,71.5 86.5,71.5 85.5,71.5C 85.5,70.1667 85.5,68.8333 85.5,67.5 Z"/></g>
</svg>
