<?xml version="1.0" encoding="UTF-8"?>
<!DOCTYPE svg PUBLIC "-//W3C//DTD SVG 1.1//EN" "http://www.w3.org/Graphics/SVG/1.1/DTD/svg11.dtd">
<svg xmlns="http://www.w3.org/2000/svg" version="1.1" width="100px" height="100px" style="shape-rendering:geometricPrecision; text-rendering:geometricPrecision; image-rendering:optimizeQuality; fill-rule:evenodd; clip-rule:evenodd" xmlns:xlink="http://www.w3.org/1999/xlink">
<g><path style="opacity:0.785" fill="#000000" d="M 45.5,-0.5 C 48.1667,-0.5 50.8333,-0.5 53.5,-0.5C 57.0106,2.19528 58.3439,5.86195 57.5,10.5C 66.741,12.5732 72.5743,18.2399 75,27.5C 75.6204,36.6284 76.9537,45.6284 79,54.5C 81.561,60.3948 85.561,65.0614 91,68.5C 92.7781,74.0564 90.9448,77.8898 85.5,80C 77.6879,82.4256 69.6879,83.5922 61.5,83.5C 62.9383,90.6132 60.6049,95.9466 54.5,99.5C 51.1667,99.5 47.8333,99.5 44.5,99.5C 38.3951,95.9466 36.0617,90.6132 37.5,83.5C 29.3121,83.5922 21.3121,82.4256 13.5,80C 8.05521,77.8898 6.22187,74.0564 8,68.5C 13.439,65.0614 17.439,60.3948 20,54.5C 22.0463,45.6284 23.3796,36.6284 24,27.5C 26.4257,18.2399 32.259,12.5732 41.5,10.5C 40.6561,5.86195 41.9894,2.19528 45.5,-0.5 Z M 47.5,4.5 C 52.1585,4.01463 53.4919,5.84796 51.5,10C 46.7282,10.8104 45.3948,8.97711 47.5,4.5 Z M 42.5,14.5 C 52.8527,12.2288 61.3527,15.2288 68,23.5C 70.233,35.1711 72.5663,46.8378 75,58.5C 77.5973,63.2656 81.0973,67.2656 85.5,70.5C 86.731,71.6507 86.731,72.8173 85.5,74C 81.0662,76.1446 76.3995,77.4779 71.5,78C 64.1379,78.2346 56.8046,78.7346 49.5,79.5C 42.1954,78.7346 34.8621,78.2346 27.5,78C 22.3365,77.5007 17.5032,76.0007 13,73.5C 15.0485,69.4123 18.0485,65.7456 22,62.5C 24.2612,58.0501 25.9278,53.3835 27,48.5C 27.188,40.7125 28.188,33.0458 30,25.5C 33.1239,20.5362 37.2906,16.8696 42.5,14.5 Z M 43.5,83.5 C 47.5138,83.3345 51.5138,83.5012 55.5,84C 57.2761,93.3009 53.6094,96.3009 44.5,93C 42.3593,89.9973 42.0259,86.8307 43.5,83.5 Z"/></g>
</svg>
