<?xml version="1.0" encoding="UTF-8"?>
<!DOCTYPE svg PUBLIC "-//W3C//DTD SVG 1.1//EN" "http://www.w3.org/Graphics/SVG/1.1/DTD/svg11.dtd">
<svg xmlns="http://www.w3.org/2000/svg" version="1.1" width="100px" height="100px" style="shape-rendering:geometricPrecision; text-rendering:geometricPrecision; image-rendering:optimizeQuality; fill-rule:evenodd; clip-rule:evenodd" xmlns:xlink="http://www.w3.org/1999/xlink">
<g><path style="opacity:0.871" fill="#000000" d="M 39.5,7.5 C 46.175,7.33375 52.8417,7.50042 59.5,8C 60.2776,11.1468 61.1109,14.3135 62,17.5C 64.5829,18.8742 67.0829,20.3742 69.5,22C 73.3224,22.1208 76.989,21.2875 80.5,19.5C 84.2196,25.1051 87.553,30.9385 90.5,37C 88.7292,39.4873 86.5625,41.654 84,43.5C 83.3333,47.5 83.3333,51.5 84,55.5C 86.5625,57.346 88.7292,59.5127 90.5,62C 87.553,68.0615 84.2196,73.8949 80.5,79.5C 77.5683,78.3005 74.5683,77.3005 71.5,76.5C 68.4005,77.7576 65.4005,79.2576 62.5,81C 61.1822,84.2463 60.1822,87.5796 59.5,91C 52.8333,91.6667 46.1667,91.6667 39.5,91C 38.7224,87.8532 37.8891,84.6865 37,81.5C 33.9351,79.5925 30.7684,77.9259 27.5,76.5C 24.4317,77.3005 21.4317,78.3005 18.5,79.5C 14.7804,73.8949 11.447,68.0615 8.5,62C 10.2708,59.5127 12.4375,57.346 15,55.5C 15.6667,51.5 15.6667,47.5 15,43.5C 12.4375,41.654 10.2708,39.4873 8.5,37C 11.447,30.9385 14.7804,25.1051 18.5,19.5C 21.4317,20.6995 24.4317,21.6995 27.5,22.5C 30.5995,21.2424 33.5995,19.7424 36.5,18C 37.8718,14.5947 38.8718,11.0947 39.5,7.5 Z M 47.5,16.5 C 49.1439,16.2865 50.6439,16.6198 52,17.5C 52.567,20.1677 53.067,22.8344 53.5,25.5C 58.8649,26.6826 63.5315,29.1826 67.5,33C 70.4371,33.3614 73.2704,32.8614 76,31.5C 77.3012,32.0981 78.1345,33.0981 78.5,34.5C 76.684,36.8169 74.684,38.9835 72.5,41C 73.8333,46.6667 73.8333,52.3333 72.5,58C 74.3333,59.8333 76.1667,61.6667 78,63.5C 78.436,65.2957 77.7693,66.6291 76,67.5C 71.5743,64.4029 67.741,64.9029 64.5,69C 61.0288,71.0719 57.3621,72.5719 53.5,73.5C 53.067,76.1656 52.567,78.8323 52,81.5C 50.3333,82.8333 48.6667,82.8333 47,81.5C 46.433,78.8323 45.933,76.1656 45.5,73.5C 40.1351,72.3174 35.4685,69.8174 31.5,66C 28.6947,65.5585 26.0281,66.0585 23.5,67.5C 21.8333,67.1667 20.8333,66.1667 20.5,64.5C 22.316,62.1831 24.316,60.0165 26.5,58C 25.1667,52.3333 25.1667,46.6667 26.5,41C 24.6667,39.1667 22.8333,37.3333 21,35.5C 20.5302,33.4507 21.3635,32.1174 23.5,31.5C 27.7459,34.665 31.4126,34.165 34.5,30C 37.9712,27.9281 41.6379,26.4281 45.5,25.5C 45.916,22.4173 46.5826,19.4173 47.5,16.5 Z M 47.5,41.5 C 55.357,42.1648 58.1904,46.1648 56,53.5C 49.3249,59.4288 44.4916,58.0955 41.5,49.5C 42.401,45.9421 44.401,43.2754 47.5,41.5 Z"/></g>
<g><path style="opacity:0.873" fill="#000000" d="M 44.5,32.5 C 60.3154,31.4813 67.4821,38.8147 66,54.5C 59.9434,66.9616 50.7767,69.7949 38.5,63C 30.5,54 30.5,45 38.5,36C 40.4319,34.5415 42.4319,33.3748 44.5,32.5 Z M 47.5,41.5 C 44.401,43.2754 42.401,45.9421 41.5,49.5C 44.4916,58.0955 49.3249,59.4288 56,53.5C 58.1904,46.1648 55.357,42.1648 47.5,41.5 Z"/></g>
</svg>
