<?xml version="1.0" encoding="UTF-8"?>
<!DOCTYPE svg PUBLIC "-//W3C//DTD SVG 1.1//EN" "http://www.w3.org/Graphics/SVG/1.1/DTD/svg11.dtd">
<svg xmlns="http://www.w3.org/2000/svg" version="1.1" width="50px" height="50px" style="shape-rendering:geometricPrecision; text-rendering:geometricPrecision; image-rendering:optimizeQuality; fill-rule:evenodd; clip-rule:evenodd" xmlns:xlink="http://www.w3.org/1999/xlink">
<g><path style="opacity:0.834" fill="#000000" d="M 33.5,4.5 C 42.665,2.83079 46.165,6.49745 44,15.5C 40.4706,19.0371 36.6372,19.3705 32.5,16.5C 27.4722,18.6762 22.8056,21.3429 18.5,24.5C 22.8056,27.6571 27.4722,30.3238 32.5,32.5C 41.6934,28.6786 45.5267,31.6786 44,41.5C 43.5,42.6667 42.6667,43.5 41.5,44C 34.3016,46.1354 30.3016,43.4687 29.5,36C 25.1667,33.8333 20.8333,31.6667 16.5,29.5C 7.35009,33.5265 3.51675,30.5265 5,20.5C 8.52439,16.9262 12.3577,16.5928 16.5,19.5C 20.8333,17.3333 25.1667,15.1667 29.5,13C 30.1672,9.83312 31.5006,6.99979 33.5,4.5 Z"/></g>
</svg>
